# xmcd
#
# Track frame offsets:
#	150
#	22501
#	44044
#	57589
#	72992
#	88994
#	111106
#	130333
#	145598
#	162649
#	175614
#	188399
#	209140
#	223485
#	245508
#	261177
#	279776
#	295212
#	312108
#	327794
#
# Disc length: 4595 seconds
#
# Revision: 2
# Processed by: cddbd v1.5.2PL0 Copyright (c) Steve Scherf et al.
# Submitted via: audiograbber 1.83.01
#
DISCID=3411f114
DTITLE=Diversen - 100 Nederpop Hits cd4
DYEAR=1900
DGENRE=
TTITLE0=De Kast - In nije dei
TTITLE1=Guus Meeuwis and Vagant - Het is een nacht
TTITLE2=Paul de Leeuw and Ruth Jacott - Blijf bij mij
TTITLE3=Herman van Veen - Toveren
TTITLE4=Han van Eijk - Leef
TTITLE5=Is Ook Schitterend - Voltooid verleden tijd
TTITLE6=Rob de Nijs - Malle Mabbe
TTITLE7=Tol Hansse - Big City
TTITLE8=Trockener Kecks - Met hart en ziel
TTITLE9=Trots - Blijf
TTITLE10=Peter Schaap - Adem mijn adem
TTITLE11=Lichter Laaie - Slapeloze nachten
TTITLE12=Grof Geschut - Heel veel hebben
TTITLE13=Van Dik Hout - Laat het los
TTITLE14=Toontje Lager - Net als in de film
TTITLE15=Arthur Umbgrove - Contract
TTITLE16=Ernst Jansz - Huiswaarts
TTITLE17=Michiel Huisman - Geef je over
TTITLE18=Spiros - Stekeblind 
TTITLE19=Re-Play - Alla day
EXTD=
EXTT0=
EXTT1=
EXTT2=
EXTT3=
EXTT4=
EXTT5=
EXTT6=
EXTT7=
EXTT8=
EXTT9=
EXTT10=
EXTT11=
EXTT12=
EXTT13=
EXTT14=
EXTT15=
EXTT16=
EXTT17=
EXTT18=
EXTT19=
PLAYORDER=
